<svg id="Ebene_1" data-name="Ebene 1" xmlns="http://www.w3.org/2000/svg" viewBox="0 0 190.83 30.47"><defs><style>.cls-1{fill:#fff;}</style></defs><title>carcada-white</title><path class="cls-1" d="M45.74,21.37l4.39,3.3a12.43,12.43,0,0,1-1.56,1.9,11.48,11.48,0,1,1,0-16.21,10.31,10.31,0,0,1,1.56,1.88l-4.39,3.3a6,6,0,1,0-1.09,7.18l0,0A5.62,5.62,0,0,0,45.74,21.37Z" transform="translate(0 0.03)"/><path class="cls-1" d="M70.64,28.23a11.32,11.32,0,0,1-6.1,1.71A11.45,11.45,0,1,1,76,18.44v11.5H70.6Zm-10.35-14a5.86,5.86,0,0,0-1.73,4.25,5.94,5.94,0,0,0,1.73,4.25,6,6,0,1,0,4.27-10.29,5.87,5.87,0,0,0-4.28,1.78Z" transform="translate(0 0.03)"/><path class="cls-1" d="M85.84,7.89A11.39,11.39,0,0,1,90.23,7v5.37a5.76,5.76,0,0,0-2.29.46,6,6,0,0,0-1.88,1.29A5.64,5.64,0,0,0,84.81,16a4,4,0,0,0-.46,2.1V29.94H79V7h5.4V8.67A9.84,9.84,0,0,1,85.84,7.89Z" transform="translate(0 0.03)"/><path class="cls-1" d="M108.74,21.37l4.39,3.3a12.43,12.43,0,0,1-1.56,1.9,11.48,11.48,0,1,1,0-16.21,10.31,10.31,0,0,1,1.56,1.88l-4.39,3.3a6,6,0,1,0-1.09,7.18l0,0A5.62,5.62,0,0,0,108.74,21.37Z" transform="translate(0 0.03)"/><path class="cls-1" d="M133.64,28.23a11.32,11.32,0,0,1-6.1,1.71A11.45,11.45,0,1,1,139,18.44v11.5h-5.4Zm-10.35-14a5.86,5.86,0,0,0-1.73,4.25,5.94,5.94,0,0,0,1.73,4.25,6,6,0,1,0,4.27-10.29,5.87,5.87,0,0,0-4.27,1.78Z" transform="translate(0 0.03)"/><path class="cls-1" d="M164.93,18.44a11.4,11.4,0,1,1-5.4-9.79V0h5.4Zm-11.47-6a6,6,0,1,0,6,6A6,6,0,0,0,153.46,12.44Z" transform="translate(0 0.03)"/><path class="cls-1" d="M185.44,28.23a11.32,11.32,0,0,1-6.1,1.71,11.45,11.45,0,1,1,11.49-11.5v11.5h-5.4Zm-10.35-14a5.86,5.86,0,0,0-1.73,4.25,5.94,5.94,0,0,0,1.73,4.25,6,6,0,1,0,4.27-10.29,5.87,5.87,0,0,0-4.28,1.78Z" transform="translate(0 0.03)"/><circle class="cls-1" cx="3.5" cy="9.97" r="3.5"/><circle class="cls-1" cx="11.5" cy="9.97" r="3.5"/><circle class="cls-1" cx="3.5" cy="26.97" r="3.5"/><circle class="cls-1" cx="11.5" cy="26.97" r="3.5"/><circle class="cls-1" cx="3.5" cy="18.47" r="3.5"/></svg>